name C:\Users\antoi\Documents\MyRepositories\upper-imu-dc\Results\main_tracking\Case_69\FLX01_angularVelocities_groundFrame.mot
datacolumns 4
datarows 70
range 0.51000000 1.20000000
endheader 
time	radius_imu_x	radius_imu_y	radius_imu_z	
          0.51000000	         -0.21272525	          0.20941313	          0.23235443	
          0.52000000	         -0.20716802	          0.21419523	          0.23766606	
          0.53000000	         -0.20024551	          0.22238143	          0.24400020	
          0.54000000	         -0.19404962	          0.23429473	          0.25103538	
          0.55000000	         -0.18942266	          0.25006675	          0.25871689	
          0.56000000	         -0.18677237	          0.26955117	          0.26711423	
          0.57000000	         -0.18629013	          0.29222449	          0.27638032	
          0.58000000	         -0.18804129	          0.31718365	          0.28673305	
          0.59000000	         -0.19199787	          0.34320053	          0.29844346	
          0.60000000	         -0.19805642	          0.36882552	          0.31181910	
          0.61000000	         -0.20605244	          0.39253101	          0.32717920	
          0.62000000	         -0.21577690	          0.41288239	          0.34482299	
          0.63000000	         -0.22699322	          0.42871407	          0.36499862	
          0.64000000	         -0.23945737	          0.43927651	          0.38787853	
          0.65000000	         -0.25293467	          0.44430135	          0.41354844	
          0.66000000	         -0.26720105	          0.44397246	          0.44200928	
          0.67000000	         -0.28204259	          0.43885907	          0.47318530	
          0.68000000	         -0.29725892	          0.42985297	          0.50693261	
          0.69000000	         -0.31266852	          0.41813140	          0.54303988	
          0.70000000	         -0.32811294	          0.40512319	          0.58121385	
          0.71000000	         -0.34347049	          0.39247436	          0.62108242	
          0.72000000	         -0.35866039	          0.38198191	          0.66220802	
          0.73000000	         -0.37363594	          0.37547809	          0.70409737	
          0.74000000	         -0.38837598	          0.37468956	          0.74622714	
          0.75000000	         -0.40287291	          0.38110109	          0.78806672	
          0.76000000	         -0.41711983	          0.39580415	          0.82909844	
          0.77000000	         -0.43110308	          0.41937005	          0.86881691	
          0.78000000	         -0.44482317	          0.45178880	          0.90666363	
          0.79000000	         -0.45823015	          0.49200007	          0.94211373	
          0.80000000	         -0.47136967	          0.54001898	          0.97539481	
          0.81000000	         -0.48379905	          0.59318157	          1.00915718	
          0.82000000	         -0.49599812	          0.65160204	          1.03956644	
          0.83000000	         -0.50754117	          0.70706641	          1.06700752	
          0.84000000	         -0.51784007	          0.75413088	          1.09470991	
          0.85000000	         -0.52767116	          0.79390714	          1.12258531	
          0.86000000	         -0.53694348	          0.82481989	          1.15159492	
          0.87000000	         -0.54485971	          0.84580568	          1.18216296	
          0.88000000	         -0.55039760	          0.85556668	          1.21483441	
          0.89000000	         -0.55261120	          0.85369352	          1.24988453	
          0.90000000	         -0.55046113	          0.83972493	          1.28768095	
          0.91000000	         -0.54306866	          0.81394376	          1.32826770	
          0.92000000	         -0.52971666	          0.77711030	          1.37158115	
          0.93000000	         -0.50990700	          0.73041914	          1.41741844	
          0.94000000	         -0.48348114	          0.67563917	          1.46535443	
          0.95000000	         -0.45067432	          0.61498923	          1.51478049	
          0.96000000	         -0.41217342	          0.55109830	          1.56488938	
          0.97000000	         -0.36911783	          0.48687919	          1.61469551	
          0.98000000	         -0.32307148	          0.42537402	          1.66307406	
          0.99000000	         -0.27594835	          0.36955883	          1.70883054	
          1.00000000	         -0.22988777	          0.32213028	          1.75078154	
          1.01000000	         -0.18710107	          0.28530982	          1.78784375	
          1.02000000	         -0.14971100	          0.26069107	          1.81910893	
          1.03000000	         -0.11961288	          0.24916168	          1.84389561	
          1.04000000	         -0.09837275	          0.25090003	          1.86177413	
          1.05000000	         -0.08716310	          0.26542949	          1.87257028	
          1.06000000	         -0.08672356	          0.29170213	          1.87635628	
          1.07000000	         -0.09734276	          0.32820106	          1.87343119	
          1.08000000	         -0.11886856	          0.37306345	          1.86428843	
          1.09000000	         -0.15075227	          0.42421999	          1.84957018	
          1.10000000	         -0.19212312	          0.47953873	          1.83001232	
          1.11000000	         -0.24187672	          0.53695123	          1.80639055	
          1.12000000	         -0.29876006	          0.59454533	          1.77947563	
          1.13000000	         -0.36144208	          0.65062278	          1.75000096	
          1.14000000	         -0.42856370	          0.70372524	          1.71864456	
          1.15000000	         -0.49876980	          0.75264032	          1.68602304	
          1.16000000	         -0.57072807	          0.79639266	          1.65269130	
          1.17000000	         -0.64314719	          0.83423846	          1.61914712	
          1.18000000	         -0.71481294	          0.86569306	          1.58583865	
          1.19000000	         -0.78460134	          0.89045732	          1.55313779	
          1.20000000	         -0.85153077	          0.90845958	          1.52134885	
